<?xml version="1.0" encoding="utf-8"?>
<svg xmlns="http://www.w3.org/2000/svg" fill="none" height="45" viewBox="0 0 89 45" width="89">
<path d="M0.0683594 0.5C14.8155 0.5 29.5626 0.5 44.7566 0.5C44.7566 5.34 44.7566 10.18 44.7566 15.1667C49.5028 15.1667 54.249 15.1667 59.139 15.1667C59.139 10.3267 59.139 5.48667 59.139 0.5C68.9704 0.5 78.8018 0.5 88.9311 0.5C88.9311 5.5069 88.9311 10.5138 88.9311 15.6724C79.2692 15.6724 69.6073 15.6724 59.6526 15.6724C59.6526 20.3455 59.6526 25.0186 59.6526 29.8333C69.3145 29.8333 78.9764 29.8333 88.9311 29.8333C88.9311 34.6733 88.9311 39.5133 88.9311 44.5C74.184 44.5 59.4369 44.5 44.2429 44.5C44.2429 34.9869 44.2429 25.4738 44.2429 15.6724C39.4967 15.6724 34.7505 15.6724 29.8605 15.6724C29.8605 25.1855 29.8605 34.6986 29.8605 44.5C24.9448 44.5 20.0291 44.5 14.9644 44.5C14.9644 34.82 14.9644 25.14 14.9644 15.1667C10.0487 15.1667 5.13302 15.1667 0.0683594 15.1667C0.0683594 10.3267 0.0683594 5.48667 0.0683594 0.5Z" fill="url(#paint0_linear_9620_225436)"/>
<defs>
<linearGradient gradientUnits="userSpaceOnUse" id="paint0_linear_9620_225436" x1="0.0307873" x2="91.7698" y1="44.0188" y2="36.8558">
<stop stop-color="#00D301"/>
<stop offset="0.5" stop-color="#36C275"/>
<stop offset="1" stop-color="#00A562"/>
</linearGradient>
</defs>
</svg>