<?xml version="1.0" encoding="utf-8"?>
<svg xmlns="http://www.w3.org/2000/svg" fill="none" viewBox="0 0 28 28" height="28" width="28">
<path fill="white" d="M8.75 6.125C8.75 5.19674 9.11875 4.3065 9.77513 3.65013C10.4315 2.99375 11.3217 2.625 12.25 2.625H15.75C16.6783 2.625 17.5685 2.99375 18.2249 3.65013C18.8813 4.3065 19.25 5.19674 19.25 6.125V6.36417C20.3385 6.46333 21.4165 6.594 22.4863 6.75383C24.1827 7.00817 25.375 8.484 25.375 10.157V13.6955C25.375 15.1083 24.5187 16.4395 23.1163 16.9062C20.1761 17.8821 17.0979 18.3781 14 18.375C10.815 18.375 7.75017 17.8593 4.88367 16.9062C3.48133 16.4395 2.625 15.1083 2.625 13.6955V10.157C2.625 8.484 3.81733 7.007 5.51367 6.75383C6.58851 6.59309 7.66773 6.46315 8.75 6.36417V6.125ZM17.5 6.125V6.23C15.1688 6.08842 12.8312 6.08842 10.5 6.23V6.125C10.5 5.66087 10.6844 5.21575 11.0126 4.88756C11.3408 4.55937 11.7859 4.375 12.25 4.375H15.75C16.2141 4.375 16.6592 4.55937 16.9874 4.88756C17.3156 5.21575 17.5 5.66087 17.5 6.125ZM14 15.75C14.2321 15.75 14.4546 15.6578 14.6187 15.4937C14.7828 15.3296 14.875 15.1071 14.875 14.875C14.875 14.6429 14.7828 14.4204 14.6187 14.2563C14.4546 14.0922 14.2321 14 14 14C13.7679 14 13.5454 14.0922 13.3813 14.2563C13.2172 14.4204 13.125 14.6429 13.125 14.875C13.125 15.1071 13.2172 15.3296 13.3813 15.4937C13.5454 15.6578 13.7679 15.75 14 15.75Z" clip-rule="evenodd" fill-rule="evenodd"/>
<path fill="white" d="M3.5 21.4651V18.2031C3.76579 18.3486 4.0442 18.4696 4.33183 18.5648C7.44997 19.6001 10.7145 20.1264 14 20.1235C17.374 20.1235 20.6267 19.5775 23.6682 18.566C23.9622 18.468 24.2398 18.3455 24.5 18.2031V21.4651C24.5 23.1591 23.2785 24.6478 21.5565 24.8753C19.0832 25.2043 16.5608 25.3735 14 25.3735C11.4729 25.374 8.94862 25.2075 6.4435 24.8753C4.7215 24.6478 3.5 23.1591 3.5 21.4651Z"/>
</svg>