<?xml version="1.0" encoding="utf-8"?>
<svg xmlns="http://www.w3.org/2000/svg" fill="none" height="16" viewBox="0 0 16 16" width="16">
<g id="Frame">
<path clip-rule="evenodd" d="M4.59961 1.59961C4.75874 1.59961 4.91135 1.66282 5.02387 1.77535C5.1364 1.88787 5.19961 2.04048 5.19961 2.19961V3.19961H10.7996V2.19961C10.7996 2.04048 10.8628 1.88787 10.9753 1.77535C11.0879 1.66282 11.2405 1.59961 11.3996 1.59961C11.5587 1.59961 11.7114 1.66282 11.8239 1.77535C11.9364 1.88787 11.9996 2.04048 11.9996 2.19961V3.19961H12.1996C12.7831 3.19961 13.3427 3.43139 13.7552 3.84397C14.1678 4.25655 14.3996 4.81613 14.3996 5.39961V12.1996C14.3996 12.7831 14.1678 13.3427 13.7552 13.7552C13.3427 14.1678 12.7831 14.3996 12.1996 14.3996H3.79961C3.21613 14.3996 2.65655 14.1678 2.24397 13.7552C1.83139 13.3427 1.59961 12.7831 1.59961 12.1996V5.39961C1.59961 4.81613 1.83139 4.25655 2.24397 3.84397C2.65655 3.43139 3.21613 3.19961 3.79961 3.19961H3.99961V2.19961C3.99961 2.04048 4.06282 1.88787 4.17535 1.77535C4.28787 1.66282 4.44048 1.59961 4.59961 1.59961ZM3.79961 5.99961C3.24761 5.99961 2.79961 6.44761 2.79961 6.99961V12.1996C2.79961 12.7516 3.24761 13.1996 3.79961 13.1996H12.1996C12.7516 13.1996 13.1996 12.7516 13.1996 12.1996V6.99961C13.1996 6.44761 12.7516 5.99961 12.1996 5.99961H3.79961Z" fill="#444854" fill-rule="evenodd" id="Vector"/>
</g>
</svg>