<?xml version="1.0" encoding="utf-8"?>
<svg xmlns="http://www.w3.org/2000/svg" width="20" height="20" viewBox="0 0 20 20" fill="none">
<g id="Frame">
<path id="Vector" fill-rule="evenodd" clip-rule="evenodd" d="M5.22953 7.21048C5.37279 7.07265 5.56491 6.99734 5.76367 7.00109C5.96243 7.00484 6.15157 7.08735 6.28953 7.23048L9.99953 11.1685L13.7095 7.23048C13.777 7.15614 13.8586 7.09608 13.9497 7.05388C14.0408 7.01168 14.1394 6.98819 14.2397 6.9848C14.34 6.98141 14.44 6.99819 14.5337 7.03415C14.6274 7.07011 14.713 7.12451 14.7853 7.19413C14.8576 7.26376 14.9152 7.34719 14.9546 7.43947C14.9941 7.53176 15.0146 7.63103 15.015 7.73141C15.0154 7.83178 14.9957 7.93121 14.9569 8.02381C14.9182 8.11641 14.8613 8.20029 14.7895 8.27048L10.5395 12.7705C10.4696 12.8431 10.3857 12.9008 10.2929 12.9402C10.2001 12.9797 10.1003 13 9.99953 13C9.89871 13 9.79893 12.9797 9.70615 12.9402C9.61337 12.9008 9.52949 12.8431 9.45953 12.7705L5.20953 8.27048C5.0717 8.12722 4.99638 7.9351 5.00013 7.73634C5.00388 7.53758 5.08639 7.34844 5.22953 7.21048Z" fill="#575A65"/>
</g>
</svg>