<?xml version="1.0" encoding="utf-8"?>
<svg xmlns="http://www.w3.org/2000/svg" fill="none" viewBox="0 0 28 28" height="28" width="28">
<path fill="white" d="M14 2.625C7.7175 2.625 2.625 7.7175 2.625 14C2.625 20.2825 7.7175 25.375 14 25.375C20.2825 25.375 25.375 20.2825 25.375 14C25.375 7.7175 20.2825 2.625 14 2.625ZM14.875 7C14.875 6.76794 14.7828 6.54538 14.6187 6.38128C14.4546 6.21719 14.2321 6.125 14 6.125C13.7679 6.125 13.5454 6.21719 13.3813 6.38128C13.2172 6.54538 13.125 6.76794 13.125 7V14C13.125 14.483 13.517 14.875 14 14.875H19.25C19.4821 14.875 19.7046 14.7828 19.8687 14.6187C20.0328 14.4546 20.125 14.2321 20.125 14C20.125 13.7679 20.0328 13.5454 19.8687 13.3813C19.7046 13.2172 19.4821 13.125 19.25 13.125H14.875V7Z" clip-rule="evenodd" fill-rule="evenodd"/>
</svg>