<?xml version="1.0" encoding="utf-8"?>
<svg xmlns="http://www.w3.org/2000/svg" fill="none" viewBox="0 0 25 24" height="24" width="25">
<path fill="white" d="M14.9163 16.4824H18.9645C18.9036 16.5482 18.8408 16.6154 18.7762 16.6845L18.7761 16.6846C18.5787 16.896 18.3645 17.1252 18.1354 17.3862C16.8272 18.8761 15.0216 19.8391 13.0555 20.0954C11.0895 20.3518 9.0973 19.8841 7.45079 18.7795C5.80427 17.675 4.61589 16.0091 4.10743 14.0927C3.59897 12.1763 3.80516 10.1403 4.68753 8.36483C5.56989 6.58931 7.06816 5.19547 8.9027 4.44348C10.7372 3.69148 12.7828 3.63267 14.6575 4.27803C16.5322 4.9234 18.1081 6.22886 19.091 7.95075L22.1318 6.21497C20.7274 3.75472 18.4758 1.88946 15.7972 0.967367C13.1185 0.04527 10.1959 0.129292 7.5747 1.20375C4.9535 2.27821 2.81276 4.26974 1.55203 6.80661C0.291301 9.34348 -0.00331056 12.2525 0.723181 14.9906C1.44967 17.7287 3.14764 20.109 5.5002 21.6872C7.85275 23.2654 10.6992 23.9337 13.5083 23.5674C16.3174 23.2011 18.8972 21.8251 20.7664 19.6964C20.9293 19.5109 21.0858 19.3319 21.2358 19.1578V22.8018H24.6385L24.6385 13.0796H14.9163V16.4824Z"/>
</svg>