<?xml version="1.0" encoding="utf-8"?>
<svg xmlns="http://www.w3.org/2000/svg" fill="none" height="9" viewBox="0 0 16 9" width="16">
<path clip-rule="evenodd" d="M0.500366 4.16792C0.500366 4.68542 0.920366 5.10542 1.43787 5.10542H12.3004L10.7754 6.63042C10.6833 6.71624 10.6094 6.81974 10.5581 6.93474C10.5069 7.04974 10.4793 7.17389 10.4771 7.29976C10.4749 7.42564 10.4981 7.55068 10.5452 7.66741C10.5924 7.78415 10.6625 7.89019 10.7516 7.97921C10.8406 8.06824 10.9466 8.13842 11.0634 8.18557C11.1801 8.23272 11.3051 8.25588 11.431 8.25366C11.5569 8.25144 11.681 8.22388 11.796 8.17264C11.911 8.1214 12.0145 8.04752 12.1004 7.95542L15.2254 4.83042C15.4009 4.65463 15.4995 4.41635 15.4995 4.16792C15.4995 3.91948 15.4009 3.6812 15.2254 3.50542L12.1004 0.380416C12.0145 0.288308 11.911 0.21443 11.796 0.16319C11.681 0.11195 11.5569 0.0843981 11.431 0.0821772C11.3051 0.0799562 11.1801 0.103112 11.0634 0.150263C10.9466 0.197414 10.8406 0.267595 10.7516 0.356618C10.6625 0.445642 10.5924 0.551684 10.5452 0.668419C10.4981 0.785154 10.4749 0.910191 10.4771 1.03607C10.4793 1.16195 10.5069 1.28609 10.5581 1.40109C10.6094 1.51609 10.6833 1.61959 10.7754 1.70542L12.3004 3.23042H1.43787C1.18923 3.23042 0.950769 3.32919 0.774953 3.505C0.599138 3.68082 0.500366 3.91928 0.500366 4.16792Z" fill="#0DAC5C" fill-rule="evenodd"/>
</svg>