<?xml version="1.0" encoding="utf-8"?>
<svg xmlns="http://www.w3.org/2000/svg" fill="none" height="24" viewBox="0 0 24 24" width="24">
<g id="instagram 1">
<path d="M12 9.272C11.4605 9.272 10.933 9.43199 10.4844 9.73175C10.0358 10.0315 9.68613 10.4576 9.47966 10.956C9.27318 11.4545 9.21916 12.003 9.32442 12.5322C9.42968 13.0614 9.6895 13.5475 10.071 13.929C10.4525 14.3105 10.9386 14.5703 11.4678 14.6756C11.997 14.7808 12.5455 14.7268 13.044 14.5203C13.5424 14.3139 13.9685 13.9642 14.2682 13.5156C14.568 13.067 14.728 12.5395 14.728 12C14.728 11.6418 14.6574 11.287 14.5203 10.956C14.3832 10.6251 14.1823 10.3243 13.929 10.071C13.6757 9.81769 13.3749 9.61675 13.044 9.47966C12.713 9.34256 12.3582 9.272 12 9.272ZM22.923 6.577C22.9172 5.72753 22.7608 4.88583 22.461 4.091C22.2402 3.50939 21.8986 2.9812 21.4587 2.5413C21.0188 2.1014 20.4906 1.75979 19.909 1.539C19.1142 1.23921 18.2725 1.08279 17.423 1.077C16.004 1 15.586 1 12 1C8.414 1 7.996 1 6.577 1.077C5.72753 1.08279 4.88583 1.23921 4.091 1.539C3.50939 1.75979 2.9812 2.1014 2.5413 2.5413C2.1014 2.9812 1.75979 3.50939 1.539 4.091C1.23921 4.88583 1.08279 5.72753 1.077 6.577C1 7.996 1 8.414 1 12C1 15.586 1 16.004 1.077 17.423C1.08884 18.2755 1.24505 19.1197 1.539 19.92C1.75881 20.499 2.10014 21.0241 2.54 21.46C2.97801 21.9025 3.50733 22.2442 4.091 22.461C4.88583 22.7608 5.72753 22.9172 6.577 22.923C7.996 23 8.414 23 12 23C15.586 23 16.004 23 17.423 22.923C18.2725 22.9172 19.1142 22.7608 19.909 22.461C20.4927 22.2442 21.022 21.9025 21.46 21.46C21.8999 21.0241 22.2412 20.499 22.461 19.92C22.7605 19.1213 22.9169 18.276 22.923 17.423C23 16.004 23 15.586 23 12C23 8.414 23 7.996 22.923 6.577ZM20.129 15.377C20.0937 16.0558 19.9488 16.7245 19.7 17.357C19.4865 17.8847 19.169 18.364 18.7665 18.7665C18.364 19.169 17.8847 19.4865 17.357 19.7C16.7185 19.935 16.0461 20.065 15.366 20.085C14.497 20.085 14.266 20.085 12 20.085C9.734 20.085 9.503 20.085 8.634 20.085C7.9539 20.065 7.28154 19.935 6.643 19.7C6.09751 19.4973 5.6049 19.1739 5.202 18.754C4.80343 18.3594 4.49563 17.8827 4.3 17.357C4.06411 16.7191 3.93767 16.046 3.926 15.366C3.926 14.497 3.926 14.266 3.926 12C3.926 9.734 3.926 9.503 3.926 8.634C3.93767 7.95401 4.06411 7.28087 4.3 6.643C4.50271 6.09751 4.8261 5.6049 5.246 5.202C5.64237 4.80559 6.11859 4.4981 6.643 4.3C7.28154 4.06505 7.9539 3.93503 8.634 3.915C9.503 3.915 9.734 3.915 12 3.915C14.266 3.915 14.497 3.915 15.366 3.915C16.0461 3.93503 16.7185 4.06505 17.357 4.3C17.9025 4.50271 18.3951 4.8261 18.798 5.246C19.1966 5.64062 19.5044 6.11735 19.7 6.643C19.935 7.28154 20.065 7.9539 20.085 8.634C20.085 9.503 20.085 9.734 20.085 12C20.085 14.266 20.162 14.497 20.129 15.366V15.377ZM18.369 7.193C18.238 6.83768 18.0315 6.51501 17.7638 6.24724C17.496 5.97946 17.1733 5.77297 16.818 5.642C16.3301 5.47289 15.8163 5.39097 15.3 5.4C14.442 5.4 14.2 5.4 12 5.4C9.8 5.4 9.558 5.4 8.7 5.4C8.18109 5.40507 7.66718 5.5019 7.182 5.686C6.83212 5.81102 6.51286 6.00908 6.24544 6.26702C5.97802 6.52496 5.76857 6.83686 5.631 7.182C5.47125 7.6719 5.39321 8.18475 5.4 8.7C5.4 9.558 5.4 9.8 5.4 12C5.4 14.2 5.4 14.442 5.4 15.3C5.41091 15.8183 5.50755 16.3313 5.686 16.818C5.81697 17.1733 6.02346 17.496 6.29123 17.7638C6.55901 18.0315 6.88168 18.238 7.237 18.369C7.70633 18.5416 8.20022 18.6382 8.7 18.655C9.558 18.655 9.8 18.655 12 18.655C14.2 18.655 14.442 18.655 15.3 18.655C15.8189 18.6499 16.3328 18.5531 16.818 18.369C17.1733 18.238 17.496 18.0315 17.7638 17.7638C18.0315 17.496 18.238 17.1733 18.369 16.818C18.5531 16.3328 18.6499 15.8189 18.655 15.3C18.655 14.442 18.655 14.2 18.655 12C18.655 9.8 18.655 9.558 18.655 8.7C18.6553 8.18058 18.5583 7.66569 18.369 7.182V7.193ZM12 16.202C11.4487 16.202 10.9028 16.0932 10.3936 15.8819C9.88443 15.6706 9.42193 15.3609 9.03262 14.9706C8.64331 14.5803 8.33483 14.117 8.12486 13.6072C7.91489 13.0975 7.80755 12.5513 7.809 12C7.809 11.1685 8.05573 10.3556 8.51794 9.66436C8.98015 8.9731 9.63706 8.43453 10.4055 8.11682C11.174 7.7991 12.0194 7.71653 12.8348 7.87956C13.6502 8.04259 14.3989 8.44389 14.9862 9.03265C15.5734 9.62141 15.9727 10.3712 16.1336 11.187C16.2945 12.0028 16.2097 12.8481 15.89 13.6157C15.5702 14.3833 15.03 15.0388 14.3375 15.4992C13.645 15.9596 12.8315 16.2042 12 16.202ZM16.4 8.623C16.1568 8.59726 15.9318 8.48244 15.7683 8.30067C15.6047 8.11889 15.5142 7.88302 15.5142 7.6385C15.5142 7.39398 15.6047 7.15811 15.7683 6.97633C15.9318 6.79456 16.1568 6.67974 16.4 6.654C16.6432 6.67974 16.8682 6.79456 17.0317 6.97633C17.1953 7.15811 17.2858 7.39398 17.2858 7.6385C17.2858 7.88302 17.1953 8.11889 17.0317 8.30067C16.8682 8.48244 16.6432 8.59726 16.4 8.623Z" fill="#E0E6ED" id="Vector"/>
</g>
</svg>