<?xml version="1.0" encoding="utf-8"?>
<svg xmlns="http://www.w3.org/2000/svg" fill="none" height="36" viewBox="0 0 37 36" width="37">
<g clip-path="url(#clip0_6089_250483)" id="twitter-x-logo-black-round-20851 2">
<g id="Group 33675">
<path d="M18.7705 0.333984C11.2537 0.333984 9.05527 0.341739 8.62794 0.377188C7.08535 0.505414 6.12545 0.748296 5.0797 1.26896C4.27379 1.66914 3.63819 2.13303 3.01091 2.7833C1.86851 3.96918 1.17614 5.42814 0.925503 7.16238C0.803646 8.00429 0.768197 8.176 0.760996 12.4764C0.758227 13.9099 0.760996 15.7965 0.760996 18.3269C0.760996 25.8377 0.769305 28.0339 0.805308 28.4604C0.929934 29.9614 1.16534 30.9058 1.66384 31.9388C2.61654 33.9162 4.43608 35.4007 6.57964 35.9546C7.32186 36.1457 8.14162 36.2509 9.19402 36.3008C9.6399 36.3201 14.1846 36.334 18.7321 36.334C23.2795 36.334 27.827 36.3284 28.2618 36.3063C29.4804 36.249 30.1879 36.154 30.9703 35.9518C32.0332 35.6792 33.0237 35.1779 33.8728 34.4829C34.7219 33.7879 35.409 32.9158 35.8861 31.9278C36.3749 30.9197 36.6228 29.9393 36.735 28.5166C36.7593 28.2064 36.7696 23.261 36.7696 18.3222C36.7696 13.3826 36.7585 8.4463 36.7341 8.13612C36.6206 6.69046 36.3727 5.71838 35.8681 4.69091C35.4541 3.84982 34.9944 3.22171 34.3269 2.57947C33.136 1.44177 31.6793 0.749404 29.9431 0.499045C29.102 0.377465 28.9345 0.341462 24.6307 0.333984H18.7705Z" fill="url(#paint0_radial_6089_250483)" id="Vector"/>
<path d="M18.7705 0.333984C11.2537 0.333984 9.05527 0.341739 8.62794 0.377188C7.08535 0.505414 6.12545 0.748296 5.0797 1.26896C4.27379 1.66914 3.63819 2.13303 3.01091 2.7833C1.86851 3.96918 1.17614 5.42814 0.925503 7.16238C0.803646 8.00429 0.768197 8.176 0.760996 12.4764C0.758227 13.9099 0.760996 15.7965 0.760996 18.3269C0.760996 25.8377 0.769305 28.0339 0.805308 28.4604C0.929934 29.9614 1.16534 30.9058 1.66384 31.9388C2.61654 33.9162 4.43608 35.4007 6.57964 35.9546C7.32186 36.1457 8.14162 36.2509 9.19402 36.3008C9.6399 36.3201 14.1846 36.334 18.7321 36.334C23.2795 36.334 27.827 36.3284 28.2618 36.3063C29.4804 36.249 30.1879 36.154 30.9703 35.9518C32.0332 35.6792 33.0237 35.1779 33.8728 34.4829C34.7219 33.7879 35.409 32.9158 35.8861 31.9278C36.3749 30.9197 36.6228 29.9393 36.735 28.5166C36.7593 28.2064 36.7696 23.261 36.7696 18.3222C36.7696 13.3826 36.7585 8.4463 36.7341 8.13612C36.6206 6.69046 36.3727 5.71838 35.8681 4.69091C35.4541 3.84982 34.9944 3.22171 34.3269 2.57947C33.136 1.44177 31.6793 0.749404 29.9431 0.499045C29.102 0.377465 28.9345 0.341462 24.6307 0.333984H18.7705Z" fill="url(#paint1_radial_6089_250483)" id="Vector_2"/>
<path d="M18.7623 5.04102C15.152 5.04102 14.6989 5.0568 13.281 5.12133C11.8658 5.18614 10.8998 5.41019 10.0545 5.73892C9.18021 6.07846 8.43855 6.53265 7.69965 7.27182C6.96021 8.01071 6.50601 8.75238 6.16537 9.62642C5.8358 10.4719 5.61148 11.4382 5.54778 12.8528C5.48463 14.2708 5.46802 14.7242 5.46802 18.3344C5.46802 21.9447 5.48408 22.3964 5.54833 23.8144C5.61341 25.2296 5.83746 26.1956 6.16592 27.0408C6.50574 27.9151 6.95993 28.6568 7.6991 29.3957C8.43772 30.1351 9.17938 30.5904 10.0531 30.93C10.8989 31.2587 11.8652 31.4828 13.2801 31.5476C14.6981 31.6121 15.1509 31.6279 18.7609 31.6279C22.3714 31.6279 22.8231 31.6121 24.2411 31.5476C25.6563 31.4828 26.6234 31.2587 27.4692 30.93C28.3432 30.5904 29.0838 30.1351 29.8224 29.3957C30.5619 28.6568 31.0161 27.9151 31.3567 27.0411C31.6835 26.1956 31.9078 25.2293 31.9743 23.8147C32.038 22.3967 32.0546 21.9447 32.0546 18.3344C32.0546 14.7242 32.038 14.2711 31.9743 12.8531C31.9078 11.4379 31.6835 10.4719 31.3567 9.6267C31.0161 8.75238 30.5619 8.01071 29.8224 7.27182C29.083 6.53237 28.3435 6.07818 27.4684 5.73892C26.6209 5.41019 25.6544 5.18614 24.2392 5.12133C22.8212 5.0568 22.3698 5.04102 18.7584 5.04102H18.7623ZM17.5697 7.4366C17.9237 7.43605 18.3186 7.4366 18.7623 7.4366C22.3116 7.4366 22.7323 7.44934 24.1339 7.51304C25.43 7.57231 26.1335 7.78888 26.6021 7.97083C27.2224 8.21178 27.6647 8.4998 28.1297 8.96507C28.595 9.43034 28.883 9.87346 29.1245 10.4938C29.3065 10.9619 29.5233 11.6653 29.5823 12.9614C29.646 14.3628 29.6598 14.7837 29.6598 18.3314C29.6598 21.8791 29.646 22.3 29.5823 23.7014C29.523 24.9975 29.3065 25.7009 29.1245 26.169C28.8836 26.7893 28.595 27.2311 28.1297 27.6961C27.6645 28.1613 27.2227 28.4494 26.6021 28.6903C26.134 28.8731 25.43 29.0891 24.1339 29.1484C22.7326 29.2121 22.3116 29.2259 18.7623 29.2259C15.2127 29.2259 14.792 29.2121 13.3906 29.1484C12.0945 29.0886 11.3911 28.872 10.9222 28.69C10.3018 28.4491 9.85873 28.1611 9.39346 27.6958C8.92819 27.2305 8.64016 26.7885 8.39867 26.1679C8.21671 25.6998 7.99986 24.9964 7.94087 23.7003C7.87718 22.2989 7.86444 21.878 7.86444 18.3281C7.86444 14.7782 7.87718 14.3594 7.94087 12.9581C8.00014 11.662 8.21671 10.9585 8.39867 10.4899C8.63961 9.86958 8.92819 9.42646 9.39346 8.96119C9.85873 8.49592 10.3018 8.2079 10.9222 7.9664C11.3908 7.78362 12.0945 7.5676 13.3906 7.50806C14.6169 7.45267 15.0922 7.43605 17.5697 7.43328V7.4366ZM25.8582 9.64387C25.5427 9.64387 25.2342 9.73744 24.9719 9.91275C24.7096 10.0881 24.5051 10.3372 24.3844 10.6287C24.2636 10.9203 24.2321 11.241 24.2937 11.5505C24.3553 11.8599 24.5073 12.1442 24.7304 12.3673C24.9536 12.5903 25.2379 12.7422 25.5473 12.8037C25.8568 12.8652 26.1776 12.8335 26.469 12.7127C26.7605 12.5919 27.0096 12.3873 27.1848 12.1249C27.3601 11.8625 27.4535 11.5541 27.4534 11.2385C27.4534 10.3578 26.7389 9.64331 25.8582 9.64331V9.64387ZM18.7623 11.5077C14.9922 11.5077 11.9355 14.5644 11.9355 18.3344C11.9355 22.1045 14.9922 25.1598 18.7623 25.1598C22.5324 25.1598 25.5882 22.1045 25.5882 18.3344C25.5882 14.5644 22.5324 11.5077 18.7623 11.5077ZM18.7623 13.9033C21.2094 13.9033 23.1934 15.8871 23.1934 18.3344C23.1934 20.7815 21.2094 22.7656 18.7623 22.7656C16.3149 22.7656 14.3311 20.7815 14.3311 18.3344C14.3311 15.8871 16.3149 13.9033 18.7623 13.9033Z" fill="white" id="Vector_3"/>
</g>
</g>
<defs>
<radialGradient cx="0" cy="0" gradientTransform="translate(10.3249 39.1067) rotate(-90) scale(35.6787 33.193)" gradientUnits="userSpaceOnUse" id="paint0_radial_6089_250483" r="1">
<stop stop-color="#FFDD55"/>
<stop offset="0.1" stop-color="#FFDD55"/>
<stop offset="0.5" stop-color="#FF543E"/>
<stop offset="1" stop-color="#C837AB"/>
</radialGradient>
<radialGradient cx="0" cy="0" gradientTransform="translate(-5.27207 2.92736) rotate(78.6776) scale(15.9487 65.7577)" gradientUnits="userSpaceOnUse" id="paint1_radial_6089_250483" r="1">
<stop stop-color="#3771C8"/>
<stop offset="0.128" stop-color="#3771C8"/>
<stop offset="1" stop-color="#6600FF" stop-opacity="0"/>
</radialGradient>
<clipPath id="clip0_6089_250483">
<rect fill="white" height="36" transform="translate(0.5)" width="36"/>
</clipPath>
</defs>
</svg>