<?xml version="1.0" encoding="utf-8"?>
<svg xmlns="http://www.w3.org/2000/svg" width="17" height="16" viewBox="0 0 17 16" fill="none">
<g id="Frame">
<path id="Vector" fill-rule="evenodd" clip-rule="evenodd" d="M8.08491 15.146L8.08731 15.1468C8.24491 15.2156 8.33291 15.1996 8.33291 15.1996C8.33291 15.1996 8.42091 15.2156 8.57931 15.1468L8.58091 15.146L8.58571 15.1436L8.60011 15.1372C8.67605 15.1019 8.75101 15.0646 8.82491 15.0252C8.97371 14.9484 9.18171 14.8332 9.43051 14.6788C9.92651 14.3716 10.5865 13.906 11.2497 13.2668C12.5745 11.99 13.9329 9.99401 13.9329 7.19961C13.9329 6.46421 13.7881 5.73601 13.5066 5.05658C13.2252 4.37716 12.8127 3.75982 12.2927 3.23981C11.7727 2.7198 11.1554 2.30731 10.4759 2.02588C9.79651 1.74446 9.06831 1.59961 8.33291 1.59961C7.59751 1.59961 6.86931 1.74446 6.18988 2.02588C5.51046 2.30731 4.89312 2.7198 4.37311 3.23981C3.8531 3.75982 3.44061 4.37716 3.15918 5.05658C2.87776 5.73601 2.73291 6.46421 2.73291 7.19961C2.73291 9.99321 4.09131 11.99 5.41691 13.2668C5.97191 13.7999 6.58139 14.2731 7.23531 14.6788C7.48858 14.8361 7.74914 14.9813 8.01611 15.114L8.06571 15.1372L8.08011 15.1436L8.08491 15.146ZM8.33291 8.99961C8.8103 8.99961 9.26814 8.80997 9.6057 8.4724C9.94327 8.13484 10.1329 7.677 10.1329 7.19961C10.1329 6.72222 9.94327 6.26438 9.6057 5.92682C9.26814 5.58925 8.8103 5.39961 8.33291 5.39961C7.85552 5.39961 7.39768 5.58925 7.06012 5.92682C6.72255 6.26438 6.53291 6.72222 6.53291 7.19961C6.53291 7.677 6.72255 8.13484 7.06012 8.4724C7.39768 8.80997 7.85552 8.99961 8.33291 8.99961Z" fill="#4848ED"/>
</g>
</svg>