<?xml version="1.0" encoding="utf-8"?>
<svg xmlns="http://www.w3.org/2000/svg" fill="none" viewBox="0 0 36 36" height="36" width="36">
<rect fill="#2D9BCA" rx="11.5" height="35" width="35" y="0.5" x="0.5"/>
<rect stroke="#C9F0FF" rx="11.5" height="35" width="35" y="0.5" x="0.5"/>
<path fill="white" d="M12.431 9.07149C12.9032 9.16909 13.2793 9.48637 13.513 9.90557L14.2573 11.2409C14.5315 11.7328 14.7622 12.1467 14.9129 12.5065C15.0727 12.8882 15.1677 13.2646 15.1243 13.6807C15.0809 14.0968 14.9103 14.4455 14.6752 14.786C14.4535 15.107 14.1424 15.4644 13.7726 15.8891L12.6784 17.1459C12.4824 17.3711 12.3843 17.4837 12.3754 17.6245C12.3664 17.7652 12.4468 17.8854 12.6075 18.1259C13.9771 20.1751 15.8231 22.0217 17.874 23.3925C18.1144 23.5532 18.2346 23.6336 18.3754 23.6246C18.5161 23.6157 18.6288 23.5176 18.854 23.3216L20.1109 22.2273C20.5356 21.8576 20.8929 21.5464 21.2139 21.3247C21.5544 21.0896 21.9031 20.919 22.3193 20.8757C22.7354 20.8323 23.1118 20.9272 23.4934 21.087C23.8532 21.2377 24.2671 21.4684 24.7589 21.7425L26.0944 22.4869C26.5136 22.7206 26.8308 23.0967 26.9284 23.5689C27.0271 24.0461 26.8816 24.5257 26.5603 24.9199C25.3946 26.3502 23.5268 27.2609 21.5675 26.8657C20.3631 26.6227 19.1748 26.2179 17.7375 25.3937C14.8497 23.7375 12.2605 21.1469 10.6063 18.2624C9.78199 16.8252 9.37723 15.6369 9.13427 14.4325C8.73903 12.4731 9.64972 10.6054 11.08 9.43963C11.4742 9.11834 11.9538 8.97287 12.431 9.07149Z"/>
</svg>