<?xml version="1.0" encoding="utf-8"?>
<svg xmlns="http://www.w3.org/2000/svg" fill="none" viewBox="0 0 28 28" height="28" width="28">
<g clip-path="url(#clip0_8912_231870)">
<path fill="white" d="M22.1663 23.3327H5.83301V24.4993C5.83301 24.8088 5.71009 25.1055 5.4913 25.3243C5.27251 25.5431 4.97576 25.666 4.66634 25.666H3.49967C3.19026 25.666 2.89351 25.5431 2.67472 25.3243C2.45592 25.1055 2.33301 24.8088 2.33301 24.4993V13.9993L5.26484 6.18035C5.4316 5.73549 5.73017 5.35213 6.12066 5.08153C6.51114 4.81092 6.97492 4.66596 7.45001 4.66602H20.5493C21.0244 4.66596 21.4882 4.81092 21.8787 5.08153C22.2692 5.35213 22.5678 5.73549 22.7345 6.18035L25.6663 13.9993V24.4993C25.6663 24.8088 25.5434 25.1055 25.3246 25.3243C25.1058 25.5431 24.8091 25.666 24.4997 25.666H23.333C23.0236 25.666 22.7268 25.5431 22.5081 25.3243C22.2893 25.1055 22.1663 24.8088 22.1663 24.4993V23.3327ZM4.82501 13.9993H23.1743L20.5493 6.99935H7.45001L4.82501 13.9993ZM7.58301 19.8327C8.04714 19.8327 8.49226 19.6483 8.82045 19.3201C9.14863 18.9919 9.33301 18.5468 9.33301 18.0827C9.33301 17.6186 9.14863 17.1734 8.82045 16.8452C8.49226 16.5171 8.04714 16.3327 7.58301 16.3327C7.11888 16.3327 6.67376 16.5171 6.34557 16.8452C6.01738 17.1734 5.83301 17.6186 5.83301 18.0827C5.83301 18.5468 6.01738 18.9919 6.34557 19.3201C6.67376 19.6483 7.11888 19.8327 7.58301 19.8327ZM20.4163 19.8327C20.8805 19.8327 21.3256 19.6483 21.6538 19.3201C21.982 18.9919 22.1663 18.5468 22.1663 18.0827C22.1663 17.6186 21.982 17.1734 21.6538 16.8452C21.3256 16.5171 20.8805 16.3327 20.4163 16.3327C19.9522 16.3327 19.5071 16.5171 19.1789 16.8452C18.8507 17.1734 18.6663 17.6186 18.6663 18.0827C18.6663 18.5468 18.8507 18.9919 19.1789 19.3201C19.5071 19.6483 19.9522 19.8327 20.4163 19.8327Z"/>
</g>
<defs>
<clipPath id="clip0_8912_231870">
<rect fill="white" height="28" width="28"/>
</clipPath>
</defs>
</svg>