<svg width="128" class="logo" height="24" viewBox="0 0 128 24" fill="none" xmlns="http://www.w3.org/2000/svg"><path d="M20.0332 21.4774C14.6168 25.5421 6.81631 24.5939 2.61025 19.3596C-1.59573 14.1253 -0.61453 6.58714 4.80178 2.52251C10.2182 -1.54205 18.0186 -0.593924 22.2246 4.64036C26.4307 9.87463 25.4495 17.4128 20.0332 21.4774Z" fill="#20E682"></path><path d="M10.2114 21.326L18.192 15.9246C19.1478 15.2784 19.7402 14.3196 19.9255 13.2941C20.1145 12.2651 19.8964 11.1694 19.2278 10.2457C18.2029 8.83039 16.4112 8.23686 14.7723 8.62313C14.3471 8.72494 13.9328 8.89 13.5439 9.12537C13.4785 9.16401 13.4167 9.20264 13.3513 9.24476L10.2804 11.3239C10.2768 11.3274 10.2768 11.3309 10.2768 11.3344C10.2295 11.4995 10.1315 11.6505 9.97878 11.7558C9.97517 11.7629 9.96428 11.7664 9.95698 11.7734C9.60807 12.0123 9.12841 11.9455 8.85946 11.6294C8.85216 11.6189 8.84496 11.6118 8.83766 11.6048C8.83037 11.5943 8.82677 11.5872 8.81948 11.5802C8.81219 11.5696 8.80858 11.5626 8.80129 11.5521C8.79769 11.545 8.79039 11.5345 8.78679 11.5274C8.56871 11.1762 8.67046 10.7162 9.01937 10.4808C9.18289 10.3684 9.37189 10.3263 9.5572 10.3404L14.6269 6.90912V2.67383L6.64253 8.07528C5.69033 8.72145 5.09802 9.68027 4.90903 10.7057C4.72003 11.7348 4.93811 12.8305 5.60677 13.7541C6.63523 15.1694 8.4269 15.763 10.0659 15.3767C10.4911 15.2749 10.9054 15.1098 11.2907 14.8745C11.3561 14.8358 11.4215 14.7972 11.4833 14.7551L14.5578 12.6759C14.5578 12.6725 14.5578 12.6689 14.5614 12.6654C14.605 12.5003 14.7067 12.3528 14.8558 12.244C14.863 12.2369 14.8703 12.2335 14.8775 12.2264C15.2301 11.9876 15.7098 12.0543 15.9751 12.3704C15.9824 12.381 15.9896 12.388 15.9969 12.395C16.0042 12.4056 16.0078 12.4126 16.0151 12.4197C16.0223 12.4302 16.0259 12.4372 16.0332 12.4478C16.0405 12.4548 16.0441 12.4654 16.0514 12.4724C16.2658 12.8236 16.1678 13.2802 15.8152 13.519C15.6517 13.6279 15.4627 13.6735 15.281 13.6595L10.2114 17.0906V21.326Z" fill="#101211"></path><path d="M37.2076 11.4913L34.6647 10.9116C33.456 10.6334 32.8684 10.1405 32.8684 9.40473C32.8684 8.41004 33.6645 7.81618 34.998 7.81618C36.3028 7.81618 37.0989 8.51363 37.1275 9.68182L37.1285 9.72134H40.526L40.5256 9.68044C40.497 7.0141 38.3331 5.22266 35.141 5.22266C33.5042 5.22266 32.1047 5.61815 31.0941 6.36654C30.0506 7.13915 29.499 8.23752 29.499 9.54283C29.499 11.6913 30.6723 12.9041 33.3029 13.4754L35.8459 14.0553C36.9645 14.3009 37.4418 14.7268 37.4418 15.4792C37.4418 16.4739 36.5176 17.0677 34.9696 17.0677C33.432 17.0677 32.4971 16.36 32.4684 15.1745L32.4674 15.135H29.0703V15.1755C29.0703 16.511 29.6128 17.6473 30.6392 18.4614C31.6745 19.2825 33.1323 19.7165 34.8552 19.7165C36.5943 19.7165 38.0777 19.2982 39.1449 18.5071C40.2351 17.6989 40.8114 16.5564 40.8114 15.2031C40.8114 13.1874 39.6999 12.0427 37.2076 11.4913Z" fill="#101211"></path><path d="M49.6614 6.48947C47.9263 6.48947 46.3986 7.19437 45.5434 8.38175V2.82422H42.2617V19.3589H45.5175V12.5347C45.5175 10.6058 46.746 9.35927 48.6473 9.35927C50.3226 9.35927 51.2834 10.4709 51.2834 12.4091V19.3589H54.5389V11.6805C54.5389 10.0498 54.1221 8.76858 53.2999 7.87237C52.4581 6.95478 51.234 6.48947 49.6614 6.48947Z" fill="#101211"></path><path d="M65.1038 13.415C65.1038 15.7376 64.1481 16.8668 62.1819 16.8668C60.3481 16.8668 59.4941 15.8258 59.4941 13.5909V6.86719H56.2383V14.6711C56.2383 17.7645 58.0575 19.6862 60.9861 19.6862C62.6603 19.6862 64.3043 18.9213 65.1192 17.7729L65.3432 19.3596H68.3596V6.86719H65.1038V13.415Z" fill="#101211"></path><path d="M92.5968 2.82422H89.3672V19.3589H92.5968V2.82422Z" fill="#101211"></path><path d="M115.648 6.73828L115.558 6.73836C113.888 6.73836 112.56 7.42674 111.971 8.58796L111.8 6.89177H108.73V19.3591H111.986V13.2887C111.986 10.9979 113.292 9.73646 115.662 9.73646H116.874V6.82171L116.838 6.81676C116.257 6.73763 116.029 6.73852 115.648 6.73828Z" fill="#101211"></path><path d="M124.718 12.1945L122.404 11.6669C121.306 11.4143 120.772 10.967 120.772 10.2993C120.772 9.38304 121.477 8.85754 122.706 8.85754C123.891 8.85754 124.614 9.49084 124.64 10.5515L124.641 10.5911H127.74L127.74 10.5502C127.714 8.12179 125.743 6.49023 122.836 6.49023C121.346 6.49023 120.072 6.85042 119.151 7.53183C118.201 8.23551 117.699 9.23603 117.699 10.425C117.699 12.382 118.767 13.4868 121.163 14.007L123.477 14.5347C124.493 14.7578 124.926 15.1442 124.926 15.8268C124.926 16.7297 124.086 17.2687 122.68 17.2687C121.283 17.2687 120.434 16.626 120.408 15.5495L120.407 15.51H117.309V15.5505C117.309 16.7668 117.803 17.8018 118.738 18.5433C119.68 19.291 121.008 19.6862 122.576 19.6862C124.16 19.6862 125.51 19.3054 126.482 18.5849C127.475 17.8488 128 16.8081 128 15.5756C128 13.7393 126.988 12.6966 124.718 12.1945Z" fill="#101211"></path><path d="M104.139 15.2877C103.78 16.4518 102.64 17.0928 100.929 17.0928C98.8564 17.0928 97.6827 16.0128 97.4402 13.8825L107.107 13.8573V12.8873C107.107 9.00123 104.621 6.49023 100.773 6.49023C96.9831 6.49023 94.3359 9.21376 94.3359 13.1133C94.3359 16.9833 97.0259 19.6862 100.877 19.6862C104.258 19.6862 106.606 18.0491 107.158 15.3069L107.168 15.2587H104.148L104.139 15.2877ZM103.862 11.5884H97.5747C97.9522 9.94968 99.0662 9.08384 100.799 9.08384C102.558 9.08376 103.728 10.0421 103.862 11.5884Z" fill="#101211"></path><path d="M84.6583 15.7501V9.50895H87.1745V6.86529H84.6785V2.99609H81.423V6.86529H78.9531V9.50895H81.4406V16.2862C81.4406 18.1808 82.7686 19.3577 84.9064 19.3577H87.4101V16.6418H85.7986C85.0632 16.6418 84.6583 16.3251 84.6583 15.7501Z" fill="#101211"></path><path d="M75.4479 15.7501V9.50895H77.9596V6.86529H75.4637V2.99609H72.2082V6.86529H69.7383V9.50895H72.2276V16.2862C72.2276 18.1808 73.5566 19.3577 75.696 19.3577H78.1996V16.6418H76.5882C75.8529 16.6418 75.4479 16.3251 75.4479 15.7501Z" fill="#101211"></path></svg>