<?xml version="1.0" encoding="utf-8"?>
<svg xmlns="http://www.w3.org/2000/svg" fill="none" viewBox="0 0 171 32" height="32" width="171">
<path fill="#20E682" d="M26.7109 28.6366C19.489 34.0561 9.08841 32.7918 3.48033 25.8128C-2.12763 18.8338 -0.819374 8.78286 6.40238 3.36334C13.6242 -2.05606 24.0248 -0.791899 29.6328 6.18714C35.2409 13.1662 33.9327 23.2171 26.7109 28.6366Z"/>
<path fill="#101211" d="M13.617 28.436L24.2579 21.234C25.5323 20.3725 26.3221 19.0941 26.5692 17.7268C26.8212 16.3547 26.5304 14.8938 25.6389 13.6622C24.2724 11.7752 21.8835 10.9838 19.6982 11.4988C19.1313 11.6346 18.5789 11.8546 18.0604 12.1685C17.9733 12.22 17.8908 12.2715 17.8036 12.3277L13.7091 15.0998C13.7043 15.1045 13.7043 15.1092 13.7043 15.1139C13.6413 15.334 13.5105 15.5353 13.3069 15.6758C13.3021 15.6851 13.2876 15.6898 13.2779 15.6992C12.8126 16.0177 12.1731 15.9287 11.8145 15.5072C11.8048 15.4931 11.7951 15.4837 11.7854 15.4743C11.7757 15.4603 11.7709 15.4509 11.7612 15.4415C11.7515 15.4275 11.7466 15.4181 11.7369 15.404C11.7321 15.3946 11.7224 15.3806 11.7176 15.3712C11.4268 14.903 11.5625 14.2896 12.0277 13.9757C12.2457 13.8258 12.4977 13.7697 12.7448 13.7885L19.5044 9.21346V3.56641L8.85857 10.7683C7.58898 11.6299 6.79924 12.9083 6.54724 14.2756C6.29524 15.6477 6.58602 17.1086 7.47756 18.3402C8.84885 20.2272 11.2377 21.0186 13.4231 20.5036C13.99 20.3678 14.5424 20.1477 15.0561 19.8339C15.1433 19.7824 15.2306 19.7309 15.3129 19.6747L19.4123 16.9026C19.4123 16.8979 19.4123 16.8932 19.4171 16.8885C19.4752 16.6684 19.6109 16.4718 19.8095 16.3266C19.8193 16.3172 19.8289 16.3126 19.8386 16.3032C20.3086 15.9847 20.9483 16.0737 21.302 16.4952C21.3117 16.5092 21.3213 16.5186 21.331 16.528C21.3407 16.5421 21.3456 16.5515 21.3553 16.5609C21.365 16.5749 21.3698 16.5843 21.3795 16.5983C21.3892 16.6077 21.3941 16.6218 21.4038 16.6312C21.6896 17.0994 21.5589 17.7082 21.0889 18.0266C20.8708 18.1718 20.6188 18.2327 20.3766 18.2139L13.617 22.7888V28.436Z"/>
<path fill="white" d="M49.6092 15.3231L46.2187 14.55C44.6071 14.1792 43.8236 13.522 43.8236 12.5409C43.8236 11.2147 44.8851 10.4229 46.6631 10.4229C48.4028 10.4229 49.4643 11.3528 49.5024 12.9104L49.5038 12.9631H54.0338L54.0332 12.9086C53.9951 9.35343 51.1099 6.96484 46.8538 6.96484C44.6713 6.96484 42.8053 7.49217 41.4578 8.49003C40.0666 9.52017 39.3311 10.9847 39.3311 12.7251C39.3311 15.5897 40.8955 17.2068 44.4029 17.9685L47.7936 18.7417C49.2852 19.0692 49.9215 19.637 49.9215 20.6402C49.9215 21.9665 48.6892 22.7583 46.6252 22.7583C44.5751 22.7583 43.3285 21.8146 43.2903 20.234L43.289 20.1813H38.7595V20.2353C38.7595 22.016 39.4829 23.5311 40.8514 24.6165C42.2317 25.7113 44.1755 26.2899 46.4726 26.2899C48.7915 26.2899 50.7693 25.7323 52.1924 24.6774C53.6459 23.5998 54.4143 22.0765 54.4143 20.2722C54.4143 17.5845 52.9323 16.0583 49.6092 15.3231Z"/>
<path fill="white" d="M66.2134 8.65263C63.8999 8.65263 61.8629 9.59249 60.7228 11.1757V3.76562H56.3472V25.8118H60.6882V16.713C60.6882 14.141 62.3263 12.479 64.8613 12.479C67.095 12.479 68.3761 13.9612 68.3761 16.5455V25.8118H72.7168V15.574C72.7168 13.3998 72.161 11.6914 71.0648 10.4965C69.9424 9.27305 68.3102 8.65263 66.2134 8.65263Z"/>
<path fill="white" d="M86.8056 17.8866C86.8056 20.9835 85.5313 22.489 82.9098 22.489C80.4647 22.489 79.3259 21.1011 79.3259 18.1212V9.15625H74.9849V19.5615C74.9849 23.686 77.4105 26.2483 81.3153 26.2483C83.5476 26.2483 85.7396 25.2284 86.8261 23.6972L87.1247 25.8127H91.1466V9.15625H86.8056V17.8866Z"/>
<path fill="white" d="M123.46 3.76562H119.154V25.8118H123.46V3.76562Z"/>
<path fill="white" d="M154.195 8.98438L154.076 8.98448C151.848 8.98448 150.078 9.90231 149.293 11.4506L149.065 9.18902H144.972V25.8121H149.313V17.7183C149.313 14.6639 151.054 12.9819 154.214 12.9819H155.83V9.09561L155.782 9.08902C155.007 8.98351 154.703 8.9847 154.195 8.98438Z"/>
<path fill="white" d="M166.29 16.2581L163.205 15.5546C161.741 15.2178 161.03 14.6213 161.03 13.7311C161.03 12.5094 161.97 11.8088 163.608 11.8088C165.188 11.8088 166.152 12.6532 166.187 14.0674L166.188 14.1201H170.32L170.32 14.0656C170.285 10.8278 167.657 8.65234 163.782 8.65234C161.795 8.65234 160.096 9.13259 158.869 10.0411C157.601 10.9794 156.931 12.3134 156.931 13.8987C156.931 16.5081 158.356 17.9811 161.55 18.6747L164.636 19.3783C165.99 19.6757 166.568 20.1909 166.568 21.1011C166.568 22.3049 165.449 23.0236 163.573 23.0236C161.711 23.0236 160.579 22.1667 160.544 20.7313L160.543 20.6786H156.411V20.7326C156.411 22.3545 157.07 23.7344 158.317 24.7231C159.574 25.7201 161.343 26.247 163.435 26.247C165.546 26.247 167.347 25.7392 168.643 24.7786C169.967 23.7971 170.666 22.4095 170.666 20.7661C170.666 18.3178 169.317 16.9275 166.29 16.2581Z"/>
<path fill="white" d="M138.85 20.3823C138.372 21.9344 136.852 22.7891 134.571 22.7891C131.807 22.7891 130.242 21.3491 129.919 18.5086L142.807 18.475V17.1817C142.807 12.0003 139.493 8.65234 134.363 8.65234C129.309 8.65234 125.78 12.2837 125.78 17.4831C125.78 22.6431 129.366 26.247 134.501 26.247C139.009 26.247 142.14 24.0641 142.876 20.4079L142.889 20.3436H138.862L138.85 20.3823ZM138.482 15.4498H130.098C130.601 13.2649 132.087 12.1105 134.398 12.1105C136.742 12.1104 138.302 13.3882 138.482 15.4498Z"/>
<path fill="white" d="M112.875 21.0014V12.6799H116.23V9.15502H112.902V3.99609H108.561V9.15502H105.268V12.6799H108.584V21.7162C108.584 24.2424 110.355 25.8116 113.206 25.8116H116.544V22.1904H114.395C113.415 22.1904 112.875 21.7682 112.875 21.0014Z"/>
<path fill="white" d="M100.597 21.0014V12.6799H103.946V9.15502H100.618V3.99609H96.2773V9.15502H92.9841V12.6799H96.3032V21.7162C96.3032 24.2424 98.0753 25.8116 100.928 25.8116H104.266V22.1904H102.117C101.137 22.1904 100.597 21.7682 100.597 21.0014Z"/>
</svg>