<?xml version="1.0" encoding="utf-8"?>
<svg xmlns="http://www.w3.org/2000/svg" fill="none" height="36" viewBox="0 0 36 36" width="36">
<g clip-path="url(#clip0_6089_250472)" id="twitter-x-logo-black-round-20851 1">
<g id="Group">
<path d="M10.0332 9.28906L23.0338 26.668H25.9778L12.9771 9.28906H10.0332Z" fill="black" id="Vector"/>
<path d="M17.9798 0.197266C8.15897 0.197266 0.197754 8.15848 0.197754 17.9793C0.197754 27.8001 8.15897 35.7613 17.9798 35.7613C27.8006 35.7613 35.7618 27.8001 35.7618 17.9793C35.7618 8.15848 27.8006 0.197266 17.9798 0.197266ZM22.3391 28.0574L16.4205 20.1436L9.09509 28.0574H7.21217L15.5792 19.0186L7.26473 7.90123H13.673L19.1238 15.1895L25.8699 7.90123H27.7528L19.965 16.3149L28.7474 28.0574H22.3391Z" fill="black" id="Vector_2"/>
</g>
</g>
<defs>
<clipPath id="clip0_6089_250472">
<rect fill="white" height="36" width="36"/>
</clipPath>
</defs>
</svg>